<?xml version="1.0" encoding="UTF-8"?>
<svg id="icon" data-name="icon" xmlns="http://www.w3.org/2000/svg" viewBox="0 0 110 32">
  <defs>
    <style>
      .cls-1 {
        fill: #ffd43b;
      }
    </style>
  </defs>
  <path class="cls-1" d="M33.44,12.05v18.93c0,.51-.42.93-.93.93h-5.44c-.51,0-.93-.42-.93-.93V12.05c0-.51.42-.93.93-.93h5.44c.51,0,.93.42.93.93Z"/>
  <path class="cls-1" d="M44.51,31.9h-5.44c-.51,0-.93-.42-.93-.93V1.26c0-.51.42-.93.93-.93h5.44c.51,0,.93.42.93.93v29.71c0,.51-.42.93-.93.93Z"/>
  <path class="cls-1" d="M109.84,8.85v21.95c0,.51-.42.93-.93.93h-5.44c-.51,0-.93-.42-.93-.93h0c0-.78-.9-1.21-1.51-.72-.45.35-.95.67-1.5.95-1.27.64-2.67.96-4.2.96-1.82,0-3.43-.41-4.82-1.22-1.39-.81-2.47-1.98-3.24-3.52s-1.15-3.34-1.15-5.42v-12.98c0-.51.42-.93.93-.93h5.39c.51,0,.93.42.93.93v12c0,1.59.41,2.83,1.24,3.71.82.88,1.93,1.32,3.33,1.32s2.55-.44,3.37-1.32c.82-.88,1.24-2.12,1.24-3.71v-12c0-.51.42-.93.93-.93h5.44c.51,0,.93.42.93.93Z"/>
  <circle class="cls-1" cx="29.75" cy="4.33" r="4.33"/>
  <path class="cls-1" d="M57.65,31.07c0,.54-.47.97-1.01.93-6.28-.51-11.23-5.79-11.23-12.2s4.95-11.68,11.23-12.2c.54-.04,1.01.38,1.01.93v5.27c0,.46-.33.86-.78.93-2.46.38-7.69,2.51-7.69,5.07s5.24,4.69,7.69,5.07c.45.07.78.47.78.93v5.27Z"/>
  <path class="cls-1" d="M68.5,31.9h-5.44c-.51,0-.93-.42-.93-.93V1.26c0-.51.42-.93.93-.93h5.44c.51,0,.93.42.93.93v29.71c0,.51-.42.93-.93.93Z"/>
  <path class="cls-1" d="M81.64,31.07c0,.54-.47.97-1.01.93-6.28-.51-11.23-5.79-11.23-12.2s4.95-11.68,11.23-12.2c.54-.04,1.01.38,1.01.93v5.27c0,.46-.33.86-.78.93-2.46.38-7.69,2.51-7.69,5.07s5.24,4.69,7.69,5.07c.45.07.78.47.78.93v5.27Z"/>
  <path class="cls-1" d="M21.32,26.86v4.11c0,.51-.42.93-.93.93H1.09c-.51,0-.93-.42-.93-.93v-4.62l.04-.04h-.02C.18,19.48,3.85,13.48,9.34,10.2c.62-.37,1.41.07,1.41.8v4.52c0,.28-.12.55-.34.73-1.18,1-2.19,2.21-2.96,3.57-.83,1.47-1.4,3.11-1.62,4.86-.08.67.45,1.26,1.13,1.26h13.43c.51,0,.93.42.93.93Z"/>
  <path class="cls-1" d="M.16,6.98V2.87c0-.51.42-.93.93-.93h19.3c.51,0,.93.42.93.93v4.62l-.04.04h.02c0,6.84-3.68,12.84-9.16,16.12-.62.37-1.41-.07-1.41-.8v-4.52c0-.28.12-.55.34-.73,1.18-1,2.19-2.21,2.96-3.57.83-1.47,1.4-3.11,1.62-4.86.08-.67-.45-1.26-1.13-1.26H1.09c-.51,0-.93-.42-.93-.93Z"/>
</svg>